<?xml version="1.0" standalone="no"?>
<!DOCTYPE svg PUBLIC "-//W3C//DTD SVG 20010904//EN"
 "http://www.w3.org/TR/2001/REC-SVG-20010904/DTD/svg10.dtd">
<svg version="1.0" xmlns="http://www.w3.org/2000/svg"
 width="257.000000pt" height="316.000000pt" viewBox="0 0 257.000000 316.000000"
 preserveAspectRatio="xMidYMid meet">

<g transform="translate(0.000000,316.000000) scale(0.100000,-0.100000)"
fill="#000000" stroke="none">
<path d="M0 1580 l0 -1580 1231 2 1231 3 54 140 54 140 0 1438 0 1437 -1285 0
-1285 0 0 -1580z m1427 1439 c43 -27 63 -66 63 -123 0 -36 -6 -52 -30 -80
-100 -113 -283 -29 -256 116 6 33 40 74 81 96 33 19 104 14 142 -9z m341 -50
c55 -27 88 -89 77 -147 -14 -74 -121 -140 -173 -106 -25 17 -59 67 -68 102
-10 36 4 87 36 131 35 48 61 52 128 20z m-727 -31 c62 -69 61 -154 -4 -225
-30 -32 -36 -34 -71 -27 -48 9 -112 64 -121 105 -15 69 21 135 90 165 48 21
74 17 106 -18z m1033 -160 c9 15 62 -8 93 -40 21 -22 27 -40 29 -81 5 -84 -35
-133 -123 -152 -38 -8 -38 -9 -17 41 19 44 21 163 5 207 -13 34 -14 47 -2 28
5 -8 11 -9 15 -3z m-1452 -30 c3 -7 1 -44 -4 -83 -9 -60 -7 -78 9 -127 19 -56
19 -58 1 -58 -56 0 -145 73 -135 111 3 10 0 20 -7 22 -20 7 26 99 63 124 38
26 66 30 73 11z m856 -150 c-6 -17 -62 -32 -85 -24 -17 7 -17 8 1 22 25 18 89
19 84 2z m-142 -35 c4 -13 4 -27 0 -30 -10 -11 -36 19 -36 43 0 31 28 21 36
-13z m-101 -3 l30 -20 -33 0 c-36 0 -72 15 -72 30 0 17 44 11 75 -10z m245
-20 c-12 -23 -56 -47 -66 -37 -18 18 24 54 64 56 10 1 10 -4 2 -19z m214 -25
c15 -22 15 -25 1 -25 -21 0 -68 47 -60 60 9 14 38 -3 59 -35z m-614 21 c0 -8
-10 -22 -22 -31 -21 -14 -23 -14 -26 0 -4 19 15 45 34 45 8 0 14 -6 14 -14z
m310 -45 c0 -9 -5 -23 -10 -31 -16 -26 -32 3 -24 45 6 35 8 37 20 20 8 -10 14
-26 14 -34z m160 14 c0 -24 -26 -42 -33 -22 -6 17 14 58 24 51 5 -3 9 -16 9
-29z m-420 6 c12 -23 13 -61 2 -61 -17 0 -32 25 -32 52 0 32 15 37 30 9z m58
7 c14 -14 16 -54 3 -63 -12 -7 -31 26 -31 54 0 24 10 27 28 9z m1235 -13 c89
-61 87 -179 -5 -235 -18 -11 -40 -20 -48 -19 -10 0 -8 3 5 9 45 18 85 83 85
137 0 35 -34 87 -73 112 -18 11 -25 21 -17 21 9 0 32 -11 53 -25z m-1122 5
c22 -12 26 -40 6 -40 -8 0 -24 11 -37 25 -20 21 -21 25 -6 25 9 0 26 -5 37
-10z m-976 -37 c-96 -51 -114 -151 -42 -230 33 -37 4 -26 -32 11 -27 28 -35
45 -39 85 -6 61 21 104 82 132 50 23 73 24 31 2z m1145 -18 c-19 -21 -21 -25
-7 -25 25 0 21 -16 -9 -39 -30 -24 -49 -27 -60 -9 -5 7 -3 8 6 3 8 -5 11 -3 8
6 -3 8 4 20 16 27 16 10 17 12 3 8 -33 -11 -15 28 22 46 44 22 51 15 21 -17z
m135 -31 c-9 -14 -20 -22 -25 -19 -17 10 -11 38 13 63 22 24 22 24 25 2 2 -11
-4 -32 -13 -46z m-597 34 c7 -7 12 -16 12 -20 0 -13 -37 -9 -49 5 -20 24 14
38 37 15z m88 -37 c6 -29 4 -33 -12 -29 -20 3 -30 38 -19 65 8 22 23 5 31 -36z
m236 12 c22 -20 23 -33 1 -33 -18 0 -53 28 -53 42 0 14 32 9 52 -9z m421 -11
c-14 -40 -43 -57 -43 -25 0 20 29 54 41 47 4 -2 5 -12 2 -22z m-215 -28 c-18
-37 -38 -42 -38 -10 0 14 9 31 22 41 28 19 34 6 16 -31z m-656 -6 c-25 -26
-63 -18 -41 8 17 21 53 34 58 22 2 -6 -6 -19 -17 -30z m358 3 c0 -35 -26 -62
-36 -37 -8 20 15 78 27 70 5 -3 9 -18 9 -33z m580 10 c0 -16 -8 -39 -18 -52
-19 -22 -19 -22 -24 -1 -5 18 24 82 37 82 3 0 5 -13 5 -29z m-142 -5 c2 -9 -2
-24 -9 -32 -17 -21 -33 -2 -25 31 7 28 29 29 34 1z m-728 -27 c0 -23 -28 -25
-36 -4 -4 8 -3 22 0 31 5 13 9 14 21 4 8 -7 15 -21 15 -31z m230 31 c0 -6 -9
-29 -20 -51 -13 -24 -18 -48 -14 -61 6 -19 7 -19 24 8 l19 28 6 -26 c4 -15 2
-36 -5 -48 -13 -24 -3 -43 33 -62 19 -10 20 -8 13 31 -4 30 -2 50 11 74 13 25
18 28 21 15 2 -10 12 -18 23 -18 19 0 19 1 3 25 -25 38 -12 39 37 3 43 -31 43
-32 19 -38 -17 -4 -21 -8 -12 -14 6 -4 12 -12 12 -18 0 -10 -29 -7 -61 6 -12
5 -20 -1 -28 -23 -17 -40 -8 -61 39 -93 22 -15 40 -35 40 -44 0 -13 -5 -12
-30 6 -16 11 -32 25 -35 30 -4 6 -22 10 -41 10 -19 0 -34 4 -34 9 0 5 10 7 23
4 21 -4 22 -4 3 11 -11 9 -22 16 -25 16 -3 0 -14 14 -23 30 -15 27 -22 30 -68
30 -27 0 -50 4 -50 9 0 12 57 34 69 26 6 -3 11 -2 11 4 0 5 -10 13 -22 17 -26
7 -58 33 -58 46 0 12 21 10 51 -6 24 -12 25 -12 21 11 -3 14 3 32 13 43 20 22
35 26 35 10z m-142 -12 c17 -17 15 -28 -6 -28 -11 0 -27 9 -37 20 -18 19 -17
20 6 20 14 0 30 -5 37 -12z m587 -60 c1 -36 5 -43 26 -49 17 -5 19 -7 6 -8
-10 -1 -17 -7 -14 -13 5 -16 -10 -48 -23 -48 -6 0 -10 7 -10 15 0 8 -3 15 -7
15 -10 0 -15 108 -7 133 10 31 28 3 29 -45z m-225 -10 c0 -16 3 -28 7 -28 4 0
17 12 30 28 22 27 22 27 23 4 0 -12 -7 -39 -15 -59 -8 -19 -15 -59 -16 -87
l-1 -51 -19 40 c-20 44 -27 83 -9 55 8 -13 10 -13 10 2 0 9 -4 28 -10 43 -14
38 -23 114 -10 95 5 -8 10 -27 10 -42z m518 30 c27 -27 5 -36 -43 -18 -14 5
-23 14 -20 20 9 14 48 13 63 -2z m-1070 -10 c17 -17 15 -40 -4 -36 -9 2 -23
13 -32 26 -13 20 -13 22 5 22 10 0 24 -5 31 -12z m166 -9 c42 -24 46 -39 12
-39 -22 0 -56 32 -56 52 0 12 5 10 44 -13z m-84 -40 c0 -25 -15 -32 -30 -14
-7 9 -10 25 -5 42 6 27 7 27 21 9 8 -11 14 -28 14 -37z m-158 6 c13 -28 6 -40
-17 -32 -17 7 -21 57 -5 57 6 0 16 -11 22 -25z m770 -70 c-5 -19 -8 -44 -5
-56 5 -17 8 -14 24 20 10 23 21 41 24 41 3 0 1 -9 -5 -19 -5 -11 -10 -28 -9
-38 0 -10 3 -13 6 -5 2 6 9 12 15 12 5 0 0 -12 -11 -26 -24 -31 -27 -71 -6
-98 14 -19 15 -18 26 12 6 18 15 29 20 26 24 -14 -4 -105 -36 -117 -22 -9 -18
-26 5 -20 11 3 20 2 20 -3 0 -15 -33 -44 -52 -44 -20 0 -24 20 -7 37 7 7 8 20
5 30 -6 15 -10 12 -22 -16 -14 -32 -15 -33 -28 -15 -9 12 -11 24 -5 36 5 9 16
42 24 74 15 57 14 59 -9 94 -13 19 -27 46 -31 59 -6 20 -4 23 9 18 11 -4 16
-1 16 12 0 10 5 33 12 52 l12 34 10 -33 c6 -22 6 -44 -2 -67z m222 64 c-7 -12
-81 -11 -89 1 -10 16 37 28 67 18 16 -6 25 -14 22 -19z m129 -10 c-10 -17 -26
-35 -35 -40 -15 -8 -18 -5 -18 15 0 17 9 30 28 40 40 22 45 19 25 -15z m-1059
5 c16 -6 23 -44 8 -44 -12 0 -32 23 -32 37 0 15 2 15 24 7z m976 -44 c-6 -11
-15 -20 -20 -20 -19 0 -21 22 -5 47 15 23 19 24 27 10 5 -11 5 -24 -2 -37z
m-790 -6 c0 -8 -6 -14 -13 -14 -19 0 -37 21 -37 42 0 17 1 17 25 2 14 -9 25
-23 25 -30z m985 33 c16 -13 15 -14 -20 -20 -45 -7 -61 -1 -44 19 14 18 40 18
64 1z m-1100 -42 c0 -28 -29 -25 -33 3 -3 19 0 23 15 20 10 -2 18 -12 18 -23z
m829 6 c3 -5 -1 -12 -10 -15 -15 -6 -15 -8 1 -26 17 -19 17 -20 -2 -20 -32 0
-83 21 -83 34 0 7 5 17 12 24 14 14 74 16 82 3z m-976 -13 c17 -17 15 -38 -3
-38 -12 0 -35 28 -35 44 0 11 26 6 38 -6z m1132 -15 c0 -34 -31 -79 -63 -90
-31 -11 -31 -11 -9 4 12 8 22 24 22 33 0 24 32 80 42 74 5 -3 8 -12 8 -21z
m-1038 -29 c8 -18 8 -28 1 -35 -12 -12 -35 17 -48 59 -6 22 -5 23 15 12 11 -6
26 -22 32 -36z m1088 12 c0 -8 -7 -19 -16 -27 -23 -19 -39 9 -17 33 17 19 33
15 33 -6z m-974 -31 c7 -42 -2 -61 -22 -44 -15 12 -18 46 -8 73 9 23 22 10 30
-29z m89 21 c39 -17 46 -36 13 -36 -22 0 -58 26 -58 42 0 11 5 10 45 -6z m105
-17 c0 -17 -5 -39 -11 -51 -14 -26 -5 -57 26 -91 24 -25 28 -26 48 -12 12 8
37 15 57 14 19 0 28 -3 20 -6 -8 -4 -21 -12 -28 -20 -7 -7 -23 -13 -35 -13
-19 -1 -20 -2 -5 -10 15 -9 15 -13 1 -40 -9 -19 -22 -30 -36 -30 l-21 0 22
-16 c15 -10 22 -25 22 -49 0 -33 -1 -34 -32 -28 -18 3 -35 7 -36 9 -2 1 -21
-6 -43 -18 -21 -11 -67 -23 -102 -28 -74 -9 -107 -24 -107 -48 0 -9 -9 -28
-19 -41 -19 -24 -19 -24 -25 -3 -4 12 -1 32 6 44 7 13 11 27 10 31 -1 5 2 6 7
3 5 -3 26 1 47 8 22 8 33 15 25 15 -8 1 -11 7 -7 17 5 13 -3 15 -46 12 -47 -3
-52 -5 -62 -34 -6 -17 -19 -42 -28 -55 l-17 -24 0 33 c-1 23 7 40 26 58 14 13
24 27 21 29 -11 11 -48 -12 -72 -43 -26 -36 -42 -29 -32 13 5 19 3 23 -9 19
-21 -9 -19 4 8 36 22 26 25 26 50 13 l27 -14 0 43 c0 39 1 41 16 26 9 -8 16
-31 17 -49 2 -33 4 -34 45 -37 40 -3 220 22 230 32 2 3 -14 10 -35 16 -37 11
-65 10 -183 -5 l-45 -6 25 20 c16 13 36 19 55 17 17 -2 22 -1 12 1 -10 3 -23
15 -29 29 -22 48 17 42 45 -7 15 -27 22 -31 47 -25 18 3 55 -2 90 -13 33 -10
60 -16 60 -12 0 15 -46 49 -74 55 -39 10 -157 67 -180 88 -11 10 -23 18 -28
18 -4 0 -8 5 -8 11 0 8 5 7 16 -2 41 -34 93 -57 147 -65 l42 -7 -20 24 -20 24
25 -22 c25 -22 95 -43 118 -36 21 8 2 23 -29 23 -21 0 -41 10 -61 30 -39 39
-31 47 21 20 46 -23 45 -23 30 17 -6 15 -12 35 -14 43 -2 8 -5 20 -6 25 -5 14
22 75 32 75 5 0 9 -14 9 -31z m634 -28 c2 -30 -3 -46 -17 -59 -25 -22 -49 -70
-42 -82 3 -5 -3 -14 -14 -19 -11 -6 -23 -21 -26 -32 -4 -12 -19 -32 -34 -45
-25 -23 -25 -23 -4 -24 12 0 24 -4 28 -9 8 -15 -29 -31 -69 -31 -19 0 -38 -4
-41 -10 -11 -19 -22 -10 -33 27 -9 29 -9 39 1 45 17 11 45 10 49 -2 5 -15 100
77 137 132 17 26 31 60 31 76 0 89 30 117 34 33z m256 44 c0 -18 -37 -38 -56
-31 -22 9 -16 23 14 34 38 14 42 14 42 -3z m-647 -42 c9 -27 17 -61 17 -77 0
-18 14 -45 39 -75 48 -59 55 -73 71 -147 16 -79 9 -152 -23 -239 -30 -81 -32
-119 -12 -194 8 -30 13 -57 13 -60 -5 -20 19 -50 63 -80 55 -38 119 -113 119
-141 0 -28 -56 -47 -154 -53 -77 -5 -93 -10 -114 -30 -40 -40 -50 -128 -36
-314 l7 -81 49 -32 c48 -32 51 -32 129 -26 76 7 81 6 111 -19 29 -25 37 -27
89 -21 71 8 153 -2 176 -21 17 -13 16 -14 -7 -9 -29 6 -89 -7 -75 -16 6 -3 30
-11 55 -18 49 -13 70 -26 70 -44 0 -6 -5 -3 -11 7 -6 10 -22 17 -42 17 -30 0
-54 12 -116 57 -24 17 -24 17 -13 -4 17 -32 15 -36 -9 -12 -14 14 -29 19 -49
15 -20 -3 -34 2 -47 16 -23 26 -55 38 -83 31 -21 -6 -20 -7 9 -19 17 -7 39
-27 49 -44 11 -19 33 -36 59 -46 23 -9 52 -28 65 -43 l23 -26 -25 21 c-14 12
-40 25 -58 29 -33 7 -33 6 -21 -17 17 -32 39 -47 70 -48 14 0 34 -7 45 -15 17
-13 16 -14 -13 -4 -18 6 -40 9 -50 7 -14 -3 -9 -10 22 -31 45 -31 36 -37 -12
-7 -19 11 -43 41 -59 72 -49 98 -100 148 -151 148 -15 0 -14 -2 4 -15 28 -20
87 -78 88 -87 0 -3 3 -10 8 -14 4 -4 7 -12 7 -18 0 -6 -7 0 -16 12 -8 12 -19
22 -24 22 -10 0 -7 -43 6 -75 6 -16 4 -16 -13 4 l-20 24 -7 -57 c-6 -55 -5
-60 24 -92 16 -19 30 -40 30 -46 0 -20 -58 55 -71 90 -6 18 -8 45 -5 59 9 35
-10 88 -38 107 -23 14 -24 14 -30 -16 -10 -49 -7 -70 11 -90 14 -16 14 -18 1
-13 -21 8 -38 48 -31 74 7 27 -14 77 -35 85 -9 3 -23 9 -30 12 -10 5 -10 1 -1
-20 10 -20 9 -32 0 -53 -11 -25 -10 -29 13 -46 14 -10 26 -23 26 -28 0 -5 -9
0 -20 11 -25 25 -46 26 -53 1 -11 -44 16 -69 113 -107 54 -21 66 -31 74 -64 7
-24 6 -24 -9 2 -8 15 -28 31 -43 34 -15 4 -40 13 -56 21 -22 12 -27 12 -21 1
17 -29 49 -58 66 -58 9 0 22 -7 29 -15 8 -9 9 -15 2 -15 -6 0 -13 4 -16 9 -3
5 -17 11 -30 13 -23 5 -25 2 -20 -26 4 -24 1 -21 -15 16 -10 26 -38 69 -61 95
-42 48 -42 49 -36 107 6 59 6 59 -14 41 -11 -10 -21 -28 -21 -39 -1 -17 -2
-18 -6 -3 -2 9 5 37 17 62 12 24 18 50 14 56 -10 17 -43 -59 -43 -101 -1 -23
10 -51 29 -79 17 -24 30 -53 30 -65 -1 -17 -3 -16 -14 9 -16 34 -66 103 -66
91 0 -5 10 -24 22 -44 16 -27 21 -49 20 -93 -1 -32 3 -61 8 -64 6 -3 10 -11
10 -17 0 -6 -9 -3 -21 8 -15 13 -20 28 -17 51 2 18 3 33 1 33 -2 0 -13 -15
-24 -33 -22 -33 -21 -26 4 33 13 30 13 41 2 74 -18 52 -35 68 -35 34 0 -14
-15 -48 -33 -74 -19 -27 -36 -56 -40 -64 -4 -10 -6 -8 -6 8 -1 12 10 39 23 60
29 44 41 82 27 82 -18 0 -72 -75 -86 -120 -13 -44 -14 -44 -14 -12 -1 42 11
66 65 123 37 40 72 115 59 127 -2 2 -28 -8 -58 -22 -52 -24 -55 -27 -62 -73
-8 -55 -24 -90 -53 -117 l-21 -18 20 38 c22 44 27 110 6 84 -20 -26 -60 -50
-82 -49 -16 0 -15 2 7 10 15 6 43 33 63 60 26 37 50 57 88 74 67 30 117 85
117 129 0 29 -69 -14 -138 -87 -19 -20 -52 -49 -71 -63 -29 -20 -27 -18 8 13
25 23 42 45 39 54 -4 10 -26 -7 -70 -52 -63 -63 -103 -89 -158 -103 -14 -4 3
8 38 25 41 20 67 41 77 60 14 27 14 29 -2 30 -14 1 -15 2 -2 6 8 2 53 24 100
49 l84 45 -58 -4 c-44 -3 -64 -10 -85 -29 -24 -22 -31 -24 -62 -15 -19 5 -58
10 -87 10 -28 1 -55 5 -59 10 -4 4 34 6 85 4 87 -4 95 -2 122 21 23 19 50 27
129 37 164 21 182 43 150 185 -12 52 -28 140 -35 195 -6 55 -24 138 -39 185
-32 97 -30 164 6 254 12 32 18 62 14 81 -66 352 -64 396 23 484 30 31 56 61
56 66 7 70 19 135 24 135 4 0 15 -21 24 -47z m-693 23 c0 -8 -13 -21 -30 -30
-28 -13 -30 -13 -30 3 0 9 5 22 12 29 17 17 48 15 48 -2z m110 -27 c0 -18 -25
-20 -65 -5 -39 14 -40 14 -15 24 27 10 80 -3 80 -19z m90 -9 c6 -11 13 -34 15
-51 3 -24 0 -30 -13 -27 -13 2 -18 16 -20 51 -3 51 1 58 18 27z m569 -6 c24
-30 28 -64 8 -64 -14 0 -31 27 -42 68 -9 30 9 28 34 -4z m256 17 c19 -8 19 -8
-3 -20 -15 -8 -22 -21 -22 -40 0 -16 -9 -40 -20 -54 -11 -14 -20 -31 -20 -39
-1 -27 -30 55 -30 85 0 29 1 29 19 13 19 -17 20 -17 30 3 15 26 14 28 -9 34
-11 3 -20 10 -20 16 0 12 45 14 75 2z m-709 -36 c7 -19 14 -45 14 -57 -1 -23
-1 -22 -25 5 -24 27 -33 66 -18 80 11 11 13 9 29 -28z m934 10 l23 -25 -23 0
c-23 0 -60 25 -60 42 0 17 38 7 60 -17z m-77 -12 l32 -18 -54 -3 c-61 -4 -74
3 -47 24 25 18 30 18 69 -3z m-1153 -3 c24 -15 -3 -34 -37 -25 -27 6 -27 7 -9
21 23 16 26 17 46 4z m520 -5 c39 -20 38 -37 -1 -33 -36 3 -77 48 -45 48 9 0
30 -7 46 -15z m820 5 c12 -7 7 -12 -24 -25 -49 -21 -66 -15 -38 13 24 24 39
27 62 12z m-1420 -71 c0 -15 -4 -30 -9 -34 -17 -10 -33 34 -25 68 6 29 7 30
20 12 8 -10 14 -31 14 -46z m200 36 c10 -12 9 -15 -6 -16 -88 -6 -95 -4 -72
19 17 17 63 15 78 -3z m1225 -34 c-3 -12 -15 -26 -26 -31 -15 -9 -19 -7 -19 7
0 28 30 67 42 55 6 -6 7 -19 3 -31z m-101 3 c9 -8 16 -22 16 -31 0 -14 -2 -14
-22 -1 -24 16 -37 48 -19 48 5 0 17 -7 25 -16z m-82 -10 c22 -12 27 -18 18
-24 -13 -8 -22 -7 -74 13 -26 9 -27 12 -10 18 28 11 32 11 66 -7z m-1170 -60
c7 -27 -7 -53 -21 -39 -11 12 -14 28 -12 70 1 28 2 28 14 10 8 -11 16 -30 19
-41z m103 26 c18 -19 17 -20 -4 -20 -29 0 -63 19 -56 31 10 15 41 10 60 -11z
m-189 -24 c27 -20 12 -30 -33 -21 -35 6 -37 8 -18 21 23 17 27 17 51 0z m1191
-7 c28 -11 28 -11 6 -22 -14 -6 -23 -19 -23 -34 0 -23 -31 -63 -50 -63 -16 0
-12 14 15 50 l26 35 -26 8 c-21 7 -24 12 -14 23 14 17 29 18 66 3z m231 -21
c-3 -8 -21 -13 -43 -13 -22 0 -40 5 -42 13 -3 8 9 12 42 12 33 0 45 -4 43 -12z
m-138 -12 c0 -21 -28 -46 -51 -46 -25 0 -24 6 7 35 30 28 44 31 44 11z m-1204
-16 c39 -15 24 -22 -47 -21 -66 1 -82 7 -59 21 20 13 72 12 106 0z m1264 -44
c0 -7 -6 -21 -14 -32 -11 -15 -17 -16 -27 -7 -9 9 -8 18 5 38 17 25 36 26 36
1z m110 -1 c-7 -8 -28 -15 -47 -15 -30 0 -34 2 -23 15 7 8 28 15 47 15 30 0
34 -2 23 -15z m-1415 -4 c7 -12 -34 -41 -58 -41 -25 0 -17 22 14 37 29 15 36
16 44 4z m1190 -45 c19 -14 17 -15 -25 -16 -25 0 -60 4 -78 9 -20 6 -32 6 -32
0 0 -5 -10 -9 -22 -9 l-23 1 22 12 c34 19 135 20 158 3z m-188 -22 c-5 -5 29
-25 178 -102 36 -19 67 -26 110 -27 33 -1 74 -2 90 -4 29 -2 29 -2 11 -16 -23
-17 -64 -19 -102 -5 -24 9 -26 8 -21 -10 7 -28 -14 -26 -43 5 -12 13 -39 30
-59 36 -20 6 -56 22 -81 34 -25 12 -55 25 -66 29 -19 6 -21 3 -16 -20 4 -23 3
-25 -15 -14 -10 7 -26 25 -35 40 -10 18 -26 30 -44 32 -15 2 -29 9 -32 16 -3
9 14 12 64 12 37 0 65 -3 61 -6z m357 -55 c-9 -10 -21 -19 -26 -19 -16 0 -8
34 15 58 l22 24 3 -22 c2 -12 -4 -30 -14 -41z m94 26 l4 -30 -26 24 c-32 30
-33 43 -3 39 16 -2 23 -11 25 -33z m-290 15 c15 -1 14 -3 -2 -15 -22 -17 -76
-20 -76 -5 0 13 33 30 48 25 8 -3 21 -5 30 -5z m-1158 -10 c0 -16 -38 -31 -65
-24 -46 12 -25 30 38 33 15 0 27 -3 27 -9z m1290 -9 c-5 -11 -20 -23 -32 -27
-21 -7 -21 -8 12 -19 l35 -13 -29 -11 c-24 -10 -33 -8 -55 6 -23 15 -24 18 -7
21 14 3 16 6 6 12 -18 11 2 37 33 43 46 9 48 8 37 -12z m-995 -11 c3 -5 -1
-23 -10 -40 -27 -52 -48 -31 -23 25 12 26 23 32 33 15z m882 -26 c-3 -3 -12
-4 -19 -1 -8 3 -5 6 6 6 11 1 17 -2 13 -5z m-1107 -12 c0 -17 -25 -32 -54 -32
l-31 1 24 19 c23 20 61 27 61 12z m981 -1387 c15 -2 30 -12 33 -22 6 -16 6
-16 -12 0 -20 19 -72 23 -72 6 0 -6 5 -20 11 -32 8 -17 5 -16 -15 6 -14 15
-26 36 -26 47 0 15 4 17 28 9 15 -4 39 -11 53 -14z"/>
<path d="M788 1823 c7 -3 16 -2 19 1 4 3 -2 6 -13 5 -11 0 -14 -3 -6 -6z"/>
<path d="M1020 1812 c0 -5 -10 -14 -22 -21 -21 -10 -20 -11 10 -6 18 2 43 12
55 20 21 15 21 15 -11 15 -17 0 -32 -4 -32 -8z"/>
<path d="M1335 1938 c-47 -61 -47 -61 -42 -125 5 -63 29 -119 47 -108 15 9 12
51 -5 65 -20 16 -19 89 1 118 18 26 59 29 91 7 30 -21 40 -78 19 -110 -27 -42
-17 -99 11 -62 34 42 16 159 -34 229 -19 26 -36 48 -37 48 -2 0 -24 -28 -51
-62z"/>
<path d="M1370 1175 l0 -65 36 0 c42 0 114 19 114 30 0 5 -10 10 -23 14 -13 3
-44 24 -69 46 -26 22 -49 40 -52 40 -3 0 -6 -29 -6 -65z"/>
<path d="M1460 553 c1 -15 25 -39 60 -60 19 -12 48 -35 64 -52 38 -39 44 -39
38 2 -6 43 -25 63 -81 83 -25 10 -50 21 -55 26 -12 10 -26 10 -26 1z"/>
</g>
</svg>
